Coordinates
version=1
nRows=43
nColumns=12
inDegrees=yes

Units are S.I. units (second, meters, Newtons, ...)
Angles are in degrees

endheader
time	SC_y	SC_z	SC_x	AC_y	AC_z	AC_x	GH_y	GH_z	GH_yy	EL_x	PS_y
       0.0              -19.51          33.13          63.08          57.68         -7.163         -9.827         -121.3          51.03          130.5          112.9          20.68
 0.0005405              -19.51          33.13          63.07          57.68         -7.163         -9.825         -121.2          51.03          130.5          112.9          20.69
  0.001081              -19.51          33.13          63.06          57.68         -7.164         -9.823         -121.2          51.02          130.5          112.9          20.69
  0.001621              -19.51          33.13          63.06          57.68         -7.164         -9.821         -121.2          51.02          130.5          112.9           20.7
  0.002162              -19.51          33.12          63.05          57.69         -7.164         -9.818         -121.2          51.02          130.5          112.9           20.7
  0.002702              -19.51          33.12          63.04          57.69         -7.165         -9.815         -121.1          51.02          130.5          112.8           20.7
  0.003243              -19.51          33.12          63.03          57.69         -7.165         -9.812         -121.1          51.01          130.4          112.8          20.71
  0.003783              -19.51          33.12          63.02          57.69         -7.166         -9.809         -121.1          51.01          130.4          112.8          20.71
  0.004324              -19.51          33.11          63.01           57.7         -7.167         -9.806         -121.1          51.01          130.4          112.8          20.72
  0.004864              -19.51          33.11          62.99           57.7         -7.167         -9.803         -121.0          51.01          130.4          112.8          20.73
  0.005405              -19.52           33.1          62.98           57.7         -7.168         -9.799         -121.0           51.0          130.4          112.7          20.73
  0.005945              -19.52           33.1          62.97           57.7         -7.169         -9.795         -120.9           51.0          130.3          112.7          20.74
  0.006486              -19.52           33.1          62.95          57.71         -7.169          -9.79         -120.9          50.99          130.3          112.7          20.75
  0.007026              -19.52          33.09          62.94          57.71          -7.17         -9.786         -120.9          50.99          130.3          112.7          20.75
  0.007567              -19.52          33.09          62.92          57.72         -7.171         -9.781         -120.8          50.99          130.3          112.6          20.76
  0.008107              -19.52          33.08           62.9          57.72         -7.172         -9.775         -120.8          50.98          130.2          112.6          20.77
  0.008648              -19.52          33.07          62.88          57.73         -7.173         -9.769         -120.7          50.97          130.2          112.6          20.78
  0.009188              -19.53          33.07          62.86          57.73         -7.174         -9.763         -120.6          50.97          130.2          112.5          20.79
  0.009729              -19.53          33.06          62.83          57.74         -7.176         -9.755         -120.6          50.96          130.1          112.5          20.81
   0.01027              -19.53          33.05           62.8          57.74         -7.177         -9.748         -120.5          50.96          130.1          112.4          20.82
   0.01081              -19.53          33.04          62.78          57.75         -7.179         -9.739         -120.4          50.95          130.1          112.4          20.83
   0.01135              -19.54          33.03          62.74          57.76          -7.18         -9.729         -120.3          50.94          130.0          112.3          20.85
   0.01189              -19.54          33.02          62.71          57.77         -7.182         -9.719         -120.2          50.93          129.9          112.3          20.87
   0.01243              -19.54          33.01          62.67          57.78         -7.184         -9.707         -120.1          50.92          129.9          112.2          20.89
   0.01297              -19.55           33.0          62.62          57.79         -7.187         -9.694         -120.0          50.91          129.8          112.1          20.91
   0.01351              -19.55          32.98          62.57           57.8         -7.189          -9.68         -119.8          50.89          129.7          112.0          20.93
   0.01405              -19.56          32.97          62.52          57.81         -7.192         -9.664         -119.7          50.88          129.7          111.9          20.96
   0.01459              -19.56          32.95          62.45          57.83         -7.195         -9.646         -119.5          50.86          129.6          111.8          20.99
   0.01513              -19.57          32.93          62.38          57.84         -7.199         -9.625         -119.3          50.85          129.5          111.7          21.03
   0.01567              -19.57           32.9           62.3          57.86         -7.203         -9.602         -119.1          50.82          129.3          111.6          21.06
   0.01621              -19.58          32.87          62.21          57.89         -7.208         -9.576         -118.8           50.8          129.2          111.4          21.11
   0.01675              -19.59          32.84          62.11          57.91         -7.213         -9.545         -118.5          50.77          129.0          111.2          21.16
    0.0173               -19.6          32.81          61.99          57.94          -7.22          -9.51         -118.2          50.74          128.9          111.0          21.22
   0.01784              -19.61          32.76          61.85          57.97         -7.227         -9.469         -117.8           50.7          128.6          110.8          21.29
   0.01838              -19.63          32.71          61.68          58.01         -7.236         -9.421         -117.3          50.66          128.4          110.5          21.37
   0.01892              -19.64          32.66          61.49          58.06         -7.246         -9.365         -116.8          50.61          128.1          110.1          21.46
   0.01946              -19.66          32.59          61.26          58.11         -7.258         -9.298         -116.1          50.55          127.7          109.7          21.58
      0.02              -19.69           32.5          60.98          58.18         -7.272         -9.218         -115.3          50.48          127.3          109.3          21.71
   0.02054              -19.71           32.4          60.64          58.26          -7.29          -9.12         -114.4          50.39          126.8          108.7          21.88
   0.02108              -19.75          32.28          60.23          58.36         -7.311         -9.002         -113.3          50.28          126.2          108.0          22.08
   0.02162              -19.79          32.13          59.73          58.48         -7.337         -8.855         -111.8          50.15          125.4          107.1          22.33
   0.02216              -19.85          31.94           59.1          58.63          -7.37         -8.673         -110.1          49.99          124.5          106.0          22.63
    0.0227              -19.91           31.7          58.31          58.82         -7.411         -8.443         -107.8          49.78          123.3          104.6          23.02
